HIERARCHY
ROOT Hips
{
  OFFSET -225.029 90.764 -236.531
  CHANNELS 6 Xposition Yposition Zposition Zrotation Xrotation Yrotation
  JOINT ToSpine
  {
    OFFSET -2.69724 7.43032 -0.144315
    CHANNELS 3 Zrotation Xrotation Yrotation
    JOINT Spine
    {
      OFFSET -0.0310711 10.7595 1.96963
      CHANNELS 3 Zrotation Xrotation Yrotation
      JOINT Spine1
      {
        OFFSET 13.1342 3.43533 0.764692
        CHANNELS 3 Zrotation Xrotation Yrotation
        JOINT Neck
        {
          OFFSET 29.8703 7.82586 -0.130764
          CHANNELS 3 Zrotation Xrotation Yrotation
          JOINT Head
          {
            OFFSET 9.52751 0.295786 -0.907742
            CHANNELS 3 Zrotation Xrotation Yrotation
            End Site
            {
              OFFSET 16.4037 0.713936 2.7358
            }
          }
        }
        JOINT LeftShoulder
        {
          OFFSET 27.5574 4.95586 2.47156
          CHANNELS 3 Zrotation Xrotation Yrotation
          JOINT LeftArm
          {
            OFFSET 1.20734 -0.998971 20.1238
            CHANNELS 3 Zrotation Xrotation Yrotation
            JOINT LeftForeArm
            {
              OFFSET 26.8049 -0.0536703 -0.155908
              CHANNELS 3 Zrotation Xrotation Yrotation
              JOINT LeftHand
              {
                OFFSET 26.6817 0 0.320147
                CHANNELS 3 Zrotation Xrotation Yrotation
                End Site
                {
                  OFFSET 18.6119 0 0.382219
                }
              }
            }
          }
        }
        JOINT RightShoulder
        {
          OFFSET 27.5927 4.71444 -2.65209
          CHANNELS 3 Zrotation Xrotation Yrotation
          JOINT RightArm
          {
            OFFSET 2.83739 -1.17114 -18.7564
            CHANNELS 3 Zrotation Xrotation Yrotation
            JOINT RightForeArm
            {
              OFFSET 28.839 -0.0548439 1.22491
              CHANNELS 3 Zrotation Xrotation Yrotation
              JOINT RightHand
              {
                OFFSET 26.5114 0 -0.101894
                CHANNELS 3 Zrotation Xrotation Yrotation
                End Site
                {
                  OFFSET 18.2168 0 0
                }
              }
            }
          }
        }
      }
    }
  }
  JOINT LeftUpLeg
  {
    OFFSET -4.76168 -1.9167 -10.2353
    CHANNELS 3 Zrotation Xrotation Yrotation
    JOINT LeftLeg
    {
      OFFSET 2.55951 -42.0585 -8.02213
      CHANNELS 3 Zrotation Xrotation Yrotation
      JOINT LeftFoot
      {
        OFFSET 3.16357 -42.5282 -3.95426
        CHANNELS 3 Zrotation Xrotation Yrotation
        JOINT LeftToeBase
        {
          OFFSET 0.346054 -6.02161 12.8035
          CHANNELS 3 Zrotation Xrotation Yrotation
          End Site
          {
            OFFSET 0.134235 -1.35082 5.13018
          }
        }
      }
    }
  }
  JOINT RightUpLeg
  {
    OFFSET -4.94151 -1.41743 10.6446
    CHANNELS 3 Zrotation Xrotation Yrotation
    JOINT RightLeg
    {
      OFFSET -2.56294 -42.0364 -7.94377
      CHANNELS 3 Zrotation Xrotation Yrotation
      JOINT RightFoot
      {
        OFFSET -3.0952 -42.555 -4.02241
        CHANNELS 3 Zrotation Xrotation Yrotation
        JOINT RightToeBase
        {
          OFFSET -0.0828122 -6.13587 12.8035
          CHANNELS 3 Zrotation Xrotation Yrotation
          End Site
          {
            OFFSET -0.131328 -1.35082 5.13018
          }
        }
      }
    }
  }
}
MOTION
Frames:	20
Frame Time:	0.0333333
-225.029 90.764 -236.531 61.9832 -29.5899 -18.8147 -70.1915 0 88.8779 99.2152 68.3812 -18.5205 -3.5859 18.1753 2.1801 -160.209 22.2231 168.993 -154.349 61.2184 -176.072 0.275513 -13.8579 -31.5229 -82.3481 48.4494 -67.5807 11.3298 0.794308 -85.3901 0.420957 0.000575269 0.35866 -1.91567 5.57484 48.7282 -63.6754 -42.5539 64.8522 16.9043 -7.67996 66.1896 0.58676 0.000331107 0.0646654 -47.0514 -6.66824 91.1925 -5.48574 53.4533 -15.006 2.03234 -16.9571 -1.40502 8.21326 -17.5625 14.3394 -15.1183 -6.44735 80.209 169.892 74.102 171.959 -14.9679 6.87104 2.44085 1.89672 -15.3187 -0.700847 
-215.326 92.3762 -228.002 62.2077 -30.3543 -17.8011 -70.1915 0 88.8779 97.7252 67.5146 -14.8579 -3.03141 17.2019 2.1087 -159.431 21.0896 168.774 -151.085 59.6667 -178.795 0.60588 -12.5051 -29.3734 -81.7437 49.4378 -70.0854 12.9165 -0.867725 -93.0518 0.420957 0.000575269 0.35866 -1.82187 5.28752 48.8642 -63.7273 -43.4871 57.9397 21.042 -8.33828 69.2352 0.58676 0.000331107 0.0646654 -59.1391 -3.77973 91.1986 -4.13929 44.8979 -16.4217 0.0880892 -6.84972 -0.635362 11.2226 -22.3257 10.2683 -10.0546 -4.64732 81.4152 131.89 86.1216 -141.036 -9.77512 8.25219 1.47236 2.29544 -19.1735 -10.1387 
-205.644 94.0529 -219.002 60.9114 -31.0137 -17.0928 -70.1915 0 88.8779 90.0743 66.9321 -5.25209 -1.06272 16.0263 3.17933 -158.776 20.2141 169.81 -149.679 58.5507 179.808 0.690635 -12.1369 -28.5412 -80.2255 50.0575 -70.2102 15.099 -3.27478 -101.172 0.420957 0.000575269 0.35866 -1.85426 5.78893 46.5105 -63.9197 -46.7945 53.436 20.0416 -6.96995 71.4839 0.58676 0.000331107 0.0646654 -67.756 -0.121587 91.4733 -3.1545 36.8764 -14.9692 -7.29459 6.11482 1.7148 10.3856 -21.8768 -2.62673 -9.2352 -1.95206 81.4265 7.5955 71.8977 -9.64898 -4.38472 11.8128 0.257104 2.3769 -15.9912 -19.2414 
-195.798 95.2234 -209.795 60.1284 -30.2247 -18.603 -70.1915 0 88.8779 79.2107 65.7346 4.38584 0.623825 15.0839 3.56426 -157.824 19.6027 169.254 -148.886 57.7327 178.386 0.745531 -11.9059 -27.7233 -78.4671 50.4555 -69.1576 16.245 -5.18612 -106.424 0.420957 0.000575269 0.35866 -1.73799 5.65333 45.3212 -66.3833 -47.3936 49.0461 20.8539 -6.03579 74.4355 0.58676 0.000331107 0.0646654 -72.8827 -0.121546 91.7139 -2.89623 35.1097 -16.1239 -7.44392 13.479 2.77779 -1.65355 2.32637 2.63224 -12.6201 -2.016 82.1131 1.96397 46.7608 -2.04644 -3.21383 12.9754 -0.0689887 2.17542 -15.1814 -10.9112 
-186.409 95.0929 -201.461 59.6573 -28.6571 -19.77 -70.1915 0 88.8779 68.9122 63.7958 13.6548 4.16213 14.3312 3.84642 -158.597 19.8254 170.398 -149.785 57.9836 178.14 0.831866 -11.4716 -26.8072 -74.5552 51.7518 -71.0982 17.1347 -5.09958 -105.284 0.420957 0.000575269 0.35866 -1.55698 5.49664 43.0601 -70.2163 -47.2283 47.3235 22.4078 -5.71103 76.2846 0.58676 0.000331107 0.0646654 -72.9701 -1.33821 89.5905 -2.82512 42.8847 -6.26532 -6.74018 10.0573 2.14421 -0.6926 0.462291 2.33142 -17.1006 -2.59011 84.9929 2.61217 24.2935 3.89766 2.52999 18.6603 -2.00606 2.50648 -15.6465 -23.8372 
-177.478 94.739 -193.404 62.0354 -27.4381 -19.5261 -70.1915 0 88.8779 68.4152 63.5774 13.1332 5.3407 14.1792 3.7851 -156.771 20.8854 171.969 -150.151 59.3942 -179.558 0.637021 -12.5329 -27.6883 -71.5492 51.6969 -71.815 15.3701 -2.53526 -98.3805 0.420957 0.000575269 0.35866 -1.43372 5.12343 42.8423 -73.2757 -45.2724 47.9304 21.8527 -5.40146 76.643 0.58676 0.000331107 0.0646654 -71.3672 -2.20362 89.2058 -3.93562 56.199 -0.147105 -4.8989 7.89267 1.48739 -1.21776 0.0422587 5.92374 -20.6511 -5.10059 84.6898 3.51402 20.2699 -0.984636 3.64991 20.212 -2.49733 2.50173 -13.8097 -19.7843 
-168.345 93.4229 -184.862 66.1237 -26.7176 -16.1083 -70.1915 0 88.8779 77.309 64.2753 6.03001 4.73488 14.0496 2.84589 -155.816 22.0532 172.659 -149.514 60.5859 -179.426 0.563033 -12.8657 -28.3382 -67.9226 52.0787 -73.9332 15.1944 0.31819 -88.1464 0.420957 0.000575269 0.35866 -1.51629 5.03361 44.8907 -75.4325 -41.9629 50.4681 21.8631 -5.07862 77.4076 0.58676 0.000331107 0.0646654 -68.2794 0.243561 89.2952 -10.1402 72.1804 5.10225 -3.22514 8.18328 1.1868 1.52403 -5.73795 7.96811 -25.3735 -5.956 79.1597 2.85302 29.1661 -0.327462 -1.7171 13.9259 -0.487038 0.593467 -4.27854 -0.701231 
-159.704 91.7479 -176.59 68.0738 -30.9638 -14.257 -70.1915 0 88.8779 94.1773 67.0236 -6.85254 0.619464 16.6077 2.08882 -153.658 23.4492 173.115 -148.748 62.1879 -177.443 0.513543 -12.9438 -29.7301 -66.3418 53.0855 -73.8192 17.0799 3.63176 -77.7406 0.420957 0.000575269 0.35866 -1.65691 5.2478 46.195 -75.3583 -39.3671 56.5529 22.0467 -5.65692 76.1745 0.58676 0.000331107 0.0646654 -62.9639 4.1417 93.6065 -46.0475 84.523 40.5695 -2.98916 7.42473 1.06184 3.17379 -8.78682 8.43199 -28.6803 -2.15628 76.1715 1.6697 43.7961 -2.49285 -14.1857 -4.89026 1.76481 -0.0469669 -4.22688 4.26945 
-151.904 91.2317 -168.524 68.8313 -35.5529 -12.288 -70.1915 0 88.8779 109.966 69.2313 -19.1276 -1.20338 19.6756 2.35551 -157.513 25.2564 175.575 -149.66 63.9285 -179.107 0.343918 -13.2951 -33.2455 -71.0366 53.0029 -70.5113 16.5608 7.53449 -65.6688 0.420957 0.000575269 0.35866 -1.98504 6.15472 46.6537 -74.1564 -36.4166 67.4291 20.9535 -6.76767 72.7688 0.58676 0.000331107 0.0646654 -53.7198 9.43003 96.2244 -140.105 82.6409 132.572 -0.404087 4.20409 0.303286 3.16603 -8.7064 8.09485 -34.5524 6.70961 81.4454 1.48679 49.0615 -6.60369 -13.6246 -13.1829 1.37334 1.20099 -5.55199 -4.70605 
-144.018 92.265 -161.276 66.9962 -34.7633 -13.8964 -70.1915 0 88.8779 108.536 70.9723 -18.1017 -1.68022 21.3559 2.62683 -155.777 26.8838 174.135 -148.341 65.4649 179.781 0.357482 -13.1877 -33.6278 -68.7645 53.9325 -70.4277 12.6504 8.60195 -55.877 0.420957 0.000575269 0.35866 -1.86286 6.11746 44.9483 -71.8211 -36.0331 77.0304 21.6335 -7.4407 71.793 0.58676 0.000331107 0.0646654 -39.9811 6.48542 94.671 -140.329 82.5507 132.239 -0.960474 3.44179 0.32982 5.0963 -12.5805 12.0593 -39.7416 5.51976 80.8603 2.2797 50.7012 -3.43518 -6.65685 -17.0165 1.35316 1.49026 -7.0757 -6.34348 
-136.382 93.3908 -153.828 65.7209 -33.7049 -15.7034 -70.1915 0 88.8779 105.715 72.8683 -18.0478 -3.60603 22.8505 4.27124 -152.816 28.5743 170.876 -146.089 67.1604 178.812 0.539334 -12.5106 -32.4106 -67.7621 55.4793 -65.6396 13.2806 9.02638 -55.9329 0.420957 0.000575269 0.35866 -1.56214 5.52409 43.0074 -71.8397 -37.9874 80.7746 24.4479 -4.85098 79.2972 0.58676 0.000331107 0.0646654 -29.3673 3.40588 94.6508 -57.9693 85.2048 51.767 -0.396411 2.78742 0.187423 7.14591 -15.7247 9.46619 -43.8315 3.29607 79.3859 2.46241 53.2748 -4.76192 -4.41589 -11.1925 1.16133 1.92534 -16.6358 7.54885 
-127.487 94.9768 -145.632 67.6028 -34.1644 -13.0949 -70.1915 0 88.8779 106.821 73.5602 -17.6575 -1.69096 23.8874 2.82834 -151.421 29.5268 168.426 -146.483 68.4539 -179.931 0.771626 -11.5639 -30.3507 -69.2525 56.4444 -59.0314 15.7306 9.68159 -58.6599 0.420957 0.000575269 0.35866 -1.44336 5.50191 41.0481 -71.9893 -39.5684 83.8157 26.6472 -1.67738 86.4596 0.58676 0.000331107 0.0646654 -26.8223 2.37837 93.4801 -8.87076 71.5128 6.70669 -2.41107 -0.887454 0.133196 4.89686 -11.9642 9.67032 -50.9465 3.19283 76.9636 3.14863 54.7382 -2.30564 -4.40043 3.51288 0.580559 3.65296 -22.939 17.4855 
-118.672 96.052 -138.034 66.9159 -36.187 -14.7593 -70.1915 0 88.8779 108.87 75.3022 -20.245 -2.67997 25.7506 2.71247 -150.73 30.4865 167.715 -147.77 69.6994 -178.426 1.03707 -10.2261 -27.8313 -70.1128 58.5979 -54.0936 14.571 8.31267 -60.4263 0.420957 0.000575269 0.35866 -1.40806 5.77474 39.1645 -71.3997 -41.0036 84.5858 24.7175 2.58154 95.3433 0.58676 0.000331107 0.0646654 -26.456 1.14167 95.431 -2.92849 50.5418 -0.186141 -3.76648 3.63774 0.797432 6.68686 -14.8571 7.98436 -53.3187 3.06434 81.7311 5.36611 58.6322 5.18533 -3.28948 13.8244 -0.0913577 2.21593 -18.0397 3.92065 
-109.866 96.7194 -130 66.584 -37.4371 -15.5713 -70.1915 0 88.8779 104.56 76.812 -16.7216 -1.73063 26.7427 2.85416 -151.799 31.6402 168.519 -151.89 71.1367 -175.579 1.23494 -8.98781 -26.2335 -76.2118 57.3076 -45.7072 15.7968 8.48906 -61.9332 0.420957 0.000575269 0.35866 -1.40052 5.72986 39.2366 -71.9597 -40.5959 82.7288 27.9434 7.53676 103.61 0.58676 0.000331107 0.0646654 -28.9144 -0.380279 95.0521 -2.20251 29.6313 -10.1981 -7.88713 10.832 2.50581 7.15718 -15.9193 13.1463 -54.8003 3.20575 85.2038 5.77425 62.4389 1.0167 -6.04726 14.1133 0.583563 2.2562 -16.6102 -13.4581 
-101.509 95.8013 -122.263 68.0465 -39.1041 -15.0398 -70.1915 0 88.8779 106.852 77.1819 -19.7636 -1.01764 27.2596 2.78704 -152.236 31.5248 168.812 -152.92 71.0637 -174.781 1.42255 -7.62497 -24.9948 -84.512 53.1523 -37.3509 18.0052 9.37701 -62.8422 0.420957 0.000575269 0.35866 -1.35447 5.54983 39.2589 -71.8151 -41.0875 81.6476 28.4375 10.4127 108.16 0.58676 0.000331107 0.0646654 -29.6808 -0.534983 95.5169 -2.19339 24.8589 -9.65783 -9.87673 13.2923 3.35114 7.47265 -16.242 8.80577 -53.863 2.86001 87.1828 3.18392 69.0421 -16.209 -13.0564 6.45606 2.06597 1.30581 -12.7818 4.86432 
-93.0746 93.5604 -114.68 70.0715 -39.744 -12.5374 -70.1915 0 88.8779 111.404 76.1317 -23.7369 -1.65325 26.6141 3.06514 -150.453 30.9463 168.155 -154.104 70.7288 -172.267 1.55399 -6.6273 -24.5197 -91.5684 46.4416 -31.9056 15.9888 8.04536 -63.4448 0.420957 0.000575269 0.35866 -1.39218 5.33885 40.9477 -72.5407 -40.5007 78.943 23.5071 8.39123 108.24 0.58676 0.000331107 0.0646654 -29.734 -0.577586 95.8034 -2.84178 32.187 -15.7678 -11.8416 13.3849 3.85477 8.24881 -17.5394 8.4303 -50.0878 3.60287 87.9103 8.97463 77.2173 -18.5404 -13.2533 0.293797 1.87599 2.31974 -15.5027 -16.1419 
-86.0057 91.0463 -107.816 72.2469 -39.6244 -10.5978 -70.1915 0 88.8779 117.951 73.9879 -31.6537 -2.33568 25.3684 3.64071 -150.091 30.2547 168.273 -155.001 70.1495 -170.283 1.75121 -5.33157 -24.8141 -98.0402 37.6313 -31.0928 14.9445 7.24269 -64.2029 0.420957 0.000575269 0.35866 -1.5646 5.49834 43.1838 -75.3574 -38.651 75.1632 24.6055 5.51419 101.575 0.58676 0.000331107 0.0646654 -28.442 -0.612646 96.1571 -4.28437 47.7917 -13.882 4.20457 0.0189366 -0.629388 -0.374182 -0.742045 3.69421 -42.6577 2.04636 85.8936 14.022 83.1317 -29.761 -13.6633 -6.91795 1.6356 2.19597 -16.5833 -9.71435 
-79.119 88.9279 -101.687 73.1521 -39.1051 -13.9345 -70.1915 0 88.8779 114.523 73.6778 -33.3665 -0.898723 24.7298 3.74731 -153.46 30.176 169.882 -160.035 70.0747 -167.095 1.75765 -5.75852 -26.5272 -106.389 28.5221 -33.3371 14.838 6.38013 -66.7172 0.420957 0.000575269 0.35866 -1.68718 5.70559 44.1958 -78.1884 -38.1998 73.2774 26.2739 0.379302 90.547 0.58676 0.000331107 0.0646654 -29.3397 -5.33665 96.3443 -5.96239 58.7228 -8.36185 7.99548 -9.84681 -1.20799 -0.160914 -3.47686 10.4975 -32.2398 -2.76512 88.069 20.3277 84.5805 -34.9381 -14.7022 -8.52429 1.627 2.21962 -20.3582 -16.4853 
-72.0366 88.615 -94.6919 73.2291 -36.1364 -13.9931 -70.1915 0 88.8779 106.242 73.1509 -25.0443 1.59165 23.7312 1.20203 -152.36 30.2061 168.051 -157.529 70.0671 -170.516 1.41756 -7.80046 -25.9649 -111.974 24.773 -37.3126 13.1826 4.68018 -70.262 0.420957 0.000575269 0.35866 -1.77397 5.46907 46.954 -80.2943 -36.9179 70.9929 21.8767 -4.95563 77.7057 0.58676 0.000331107 0.0646654 -32.4369 -7.62558 94.3509 -8.35883 64.8023 -8.14606 6.03058 -14.156 -1.24173 2.83881 -9.44975 15.0525 -25.3431 -5.57758 86.1755 4.69962 74.7422 -19.5989 -14.4983 -10.6406 1.51177 2.28623 -19.6192 -12.2754 
-65.0174 88.9913 -87.571 74.0572 -36.4682 -11.8027 -70.1915 0 88.8779 109.623 72.2014 -27.5878 -0.819029 22.8229 3.03489 -147.965 29.4834 168.202 -157.034 69.5501 -169.206 1.46369 -7.5395 -26.1924 -112.7 25.9606 -40.9801 14.3763 3.30274 -76.7422 0.420957 0.000575269 0.35866 -1.83571 5.39063 48.4738 -78.5014 -35.5681 67.4594 18.3881 -6.49807 71.0931 0.58676 0.000331107 0.0646654 -37.9559 -5.24426 93.1827 -11.173 69.4422 -6.79835 3.01475 -15.526 -1.30499 5.8026 -14.1224 16.9246 -24.2954 -3.26221 84.8631 1.49703 55.4077 -10.5612 -8.24232 -3.75146 1.23811 2.20713 -20.3163 -17.2193 
